<svg xmlns="http://www.w3.org/2000/svg" xmlns:xlink="http://www.w3.org/1999/xlink" width="500" zoomAndPan="magnify" viewBox="0 0 375 374.999991" height="500" preserveAspectRatio="xMidYMid meet" version="1.0"><defs><clipPath id="d6f3bd83c5"><path d="M 7 27.65625 L 368 27.65625 L 368 326 L 7 326 Z M 7 27.65625 " clip-rule="nonzero"/></clipPath></defs><rect x="-37.5" width="450" fill="#ffffff" y="-37.499999" height="449.999989" fill-opacity="1"/><rect x="-37.5" width="450" fill="#ffffff" y="-37.499999" height="449.999989" fill-opacity="1"/><rect x="-37.5" width="450" fill="#000000" y="-37.499999" height="449.999989" fill-opacity="1"/><g clip-path="url(#d6f3bd83c5)"><path fill="#008080" d="M 194.917969 227.011719 C 195.773438 230.683594 195.703125 234.339844 194.703125 237.980469 C 193.382812 243.238281 190.421875 247.457031 186.320312 250.921875 C 181.503906 254.953125 176.234375 258.257812 170.507812 260.835938 C 166.890625 262.488281 163.207031 263.996094 159.550781 265.5625 C 156.664062 266.761719 153.878906 268.164062 151.199219 269.769531 C 134.011719 280.316406 132.625 298.929688 136.898438 310.984375 C 140.929688 322.355469 152.578125 326.867188 162.332031 324.558594 C 168.300781 323.148438 172.546875 319.535156 174.097656 313.425781 C 175.597656 307.5 172.304688 302.328125 166.460938 300.984375 C 164.777344 300.597656 163.1875 300.753906 161.777344 301.792969 C 159.542969 303.4375 159.714844 306.039062 162.140625 307.371094 C 162.785156 307.722656 163.464844 308.03125 163.347656 308.882812 C 163.226562 309.796875 162.449219 310.085938 161.671875 310.296875 C 161.210938 310.417969 160.75 310.425781 160.285156 310.324219 C 159.820312 310.226562 159.402344 310.023438 159.035156 309.722656 C 158.574219 309.382812 158.152344 308.996094 157.773438 308.5625 C 157.394531 308.132812 157.070312 307.664062 156.792969 307.160156 C 156.519531 306.65625 156.304688 306.125 156.144531 305.574219 C 155.988281 305.019531 155.890625 304.457031 155.855469 303.886719 C 155.824219 303.3125 155.851562 302.742188 155.945312 302.175781 C 156.035156 301.605469 156.1875 301.058594 156.402344 300.523438 C 156.613281 299.988281 156.882812 299.484375 157.207031 299.011719 C 157.53125 298.539062 157.902344 298.105469 158.324219 297.710938 C 160.503906 295.71875 163.125 294.53125 165.910156 293.691406 C 171.53125 291.992188 177.304688 291.078125 183.125 290.410156 C 190.867188 289.519531 198.667969 289.019531 206.277344 287.160156 C 211.84375 285.8125 217.128906 283.738281 222.128906 280.941406 C 233.84375 274.363281 241.429688 264.636719 244.519531 251.5 C 246.351562 243.710938 247.316406 235.847656 246.554688 227.832031 C 246.46875 226.929688 246.199219 225.996094 246.582031 225.046875 C 246.816406 225.03125 247.042969 225.058594 247.269531 225.128906 C 252.816406 228.167969 258.941406 228.878906 265.074219 229.59375 C 273.730469 230.605469 282.363281 229.917969 291.003906 229.332031 C 295.75 229.011719 300.492188 228.582031 305.257812 228.671875 C 307.066406 228.671875 308.832031 228.945312 310.558594 229.480469 C 311.15625 229.660156 311.71875 229.917969 312.246094 230.253906 C 313.632812 231.191406 313.695312 231.832031 312.519531 233.015625 C 310.488281 234.980469 308.238281 236.644531 305.761719 238.007812 C 301.910156 240.242188 297.863281 242.089844 293.859375 244.023438 C 289.996094 245.886719 286.113281 247.71875 282.367188 249.8125 C 277.785156 252.378906 273.5 255.351562 269.84375 259.152344 C 264.808594 264.386719 261.371094 270.492188 259.886719 277.644531 C 258.757812 283.0625 259.886719 288.019531 262.929688 292.582031 C 266.613281 298.105469 271.714844 301.820312 277.914062 304.023438 C 286.964844 307.242188 295.988281 306.96875 304.925781 303.527344 C 307.84375 302.464844 310.34375 300.78125 312.417969 298.46875 C 313.089844 297.707031 313.691406 296.890625 314.222656 296.027344 C 318.726562 288.570312 314.496094 280.347656 305.789062 279.667969 C 304.398438 279.558594 302.988281 279.707031 301.582031 279.699219 C 300.476562 279.695312 300.230469 279.304688 300.617188 278.246094 C 301.066406 276.996094 302.074219 276.238281 303.105469 275.535156 C 306.105469 273.53125 309.296875 271.910156 312.683594 270.671875 C 317.289062 268.925781 322.0625 267.75 326.828125 266.554688 C 331.523438 265.378906 336.183594 264.105469 340.675781 262.269531 C 349.351562 258.726562 356.585938 253.351562 361.675781 245.390625 C 368.066406 235.394531 368.753906 224.953125 363.703125 214.199219 C 360.40625 207.171875 355.332031 201.664062 348.9375 197.324219 C 348.175781 196.808594 347.257812 196.476562 346.746094 195.65625 C 346.875 195.261719 347.117188 194.953125 347.464844 194.734375 C 351.628906 191.351562 354.351562 186.976562 356.5 182.121094 C 362.972656 167.488281 362.46875 152.699219 357.636719 137.8125 C 354.757812 129.054688 350.488281 121.039062 344.839844 113.753906 C 336.90625 103.394531 327.484375 94.570312 317.015625 86.828125 C 314.757812 85.15625 312.484375 83.503906 310.320312 81.714844 C 307.195312 79.160156 304.710938 76.089844 302.867188 72.5 C 300.726562 68.320312 300.722656 64.082031 302.675781 59.871094 C 304.46875 56.011719 308.390625 54.570312 312.292969 56.191406 C 315.164062 57.386719 316.242188 60.101562 314.902344 62.886719 C 314.394531 63.9375 313.746094 64.917969 313.183594 65.945312 C 309.738281 72.253906 313.339844 78.757812 320.53125 79.21875 C 328.21875 79.710938 335.371094 74.582031 336.738281 66.890625 C 338.671875 55.988281 336.46875 46.066406 328.132812 38.164062 C 322.203125 32.542969 315.289062 28.851562 307.015625 28.015625 C 303.960938 27.726562 300.941406 27.953125 297.960938 28.699219 C 287.332031 31.253906 279.28125 37.179688 274.597656 47.1875 C 268.363281 60.503906 268.707031 73.59375 276.398438 86.308594 C 279.039062 90.5625 282.035156 94.546875 285.390625 98.261719 C 288.175781 101.417969 291 104.546875 293.722656 107.757812 C 297.4375 112.023438 300.484375 116.722656 302.863281 121.851562 C 305.179688 127.003906 306.308594 132.359375 305.542969 138.023438 C 304.902344 142.761719 302.761719 146.746094 299.398438 150.101562 C 299.175781 150.320312 298.9375 150.515625 298.671875 150.679688 C 298.5625 150.75 298.382812 150.707031 298.085938 150.722656 C 298.046875 148.886719 298.429688 147.0625 298.214844 145.21875 C 297.699219 140.734375 296.261719 136.566406 293.90625 132.714844 C 290.167969 126.519531 285.058594 121.648438 279.222656 117.5 C 274.816406 114.359375 270.105469 111.785156 265.082031 109.777344 C 260.0625 107.769531 254.871094 106.386719 249.515625 105.628906 C 248.222656 105.4375 247.4375 104.984375 246.84375 103.777344 C 242.183594 94.25 235.441406 86.316406 227.773438 79.105469 C 227.316406 78.679688 226.839844 78.273438 226.402344 77.832031 C 212.671875 63.886719 196.007812 56.394531 176.515625 54.988281 C 164.722656 54.140625 153.136719 54.933594 141.84375 58.664062 C 137.457031 60.101562 133.246094 61.945312 129.210938 64.1875 C 123.632812 67.277344 118.398438 70.871094 113.507812 74.964844 C 108.617188 79.0625 104.164062 83.589844 100.148438 88.542969 C 93.175781 97.152344 88.304688 106.863281 86.132812 117.800781 C 85.144531 122.414062 84.859375 127.066406 85.273438 131.761719 C 85.351562 132.527344 85.285156 133.3125 85.285156 134.296875 C 84.703125 133.769531 84.59375 133.183594 84.375 132.652344 C 80.433594 123.054688 73.039062 117.914062 62.949219 116.875 C 53.441406 115.894531 45.492188 119.367188 39.332031 126.710938 C 32.082031 135.351562 29.3125 145.210938 31.332031 156.378906 C 32.953125 165.34375 36.617188 173.304688 42.644531 180.164062 C 43.867188 181.558594 43.859375 181.597656 42.386719 182.820312 C 39.367188 185.265625 37.007812 188.234375 35.304688 191.722656 C 34.855469 192.769531 34.097656 193.488281 33.027344 193.882812 C 30.253906 194.976562 27.667969 196.410156 25.269531 198.183594 C 22.871094 199.957031 20.742188 202.011719 18.886719 204.34375 C 13.628906 210.839844 9.351562 217.867188 7.855469 226.261719 C 6.507812 233.84375 7.269531 241.234375 10.507812 248.21875 C 15.542969 259.085938 24.332031 264.992188 36.015625 266.765625 C 39.171875 267.183594 42.253906 266.871094 45.261719 265.828125 C 52.914062 263.363281 59.269531 259.078125 63.886719 252.390625 C 64.96875 250.828125 64.992188 250.824219 66.839844 251.808594 C 74.792969 256.042969 83.042969 259.492188 91.863281 261.488281 C 97.742188 262.792969 103.695312 263.519531 109.714844 263.671875 C 127.195312 264.175781 144.042969 261.296875 160.140625 254.363281 C 167.074219 251.449219 173.597656 247.800781 179.707031 243.417969 C 185.488281 239.261719 190.203125 234.121094 193.847656 228.003906 C 194.011719 227.742188 194.1875 227.492188 194.382812 227.25 C 194.421875 227.199219 194.515625 227.1875 194.917969 227.011719 Z M 163.242188 304.308594 C 164.714844 303.511719 164.714844 303.511719 165.46875 303.605469 C 166.230469 303.703125 166.957031 303.921875 167.648438 304.257812 C 168.335938 304.597656 168.953125 305.035156 169.5 305.578125 C 170.042969 306.121094 170.484375 306.734375 170.828125 307.421875 C 171.167969 308.113281 171.390625 308.835938 171.492188 309.597656 C 171.648438 310.8125 171.566406 312.011719 171.25 313.195312 C 170.929688 314.378906 170.398438 315.457031 169.652344 316.433594 C 166.398438 320.875 161.867188 322.421875 156.550781 322.21875 C 149.210938 321.9375 142.011719 317.644531 139.484375 309.871094 C 138.535156 307.007812 137.972656 304.066406 137.796875 301.054688 C 137.625 298.039062 137.847656 295.054688 138.46875 292.101562 C 140.242188 283.507812 145.128906 277.109375 152.414062 272.425781 C 155.644531 270.347656 159.164062 268.847656 162.695312 267.382812 C 167.527344 265.382812 172.363281 263.390625 176.925781 260.820312 C 181.90625 258.019531 186.683594 254.917969 190.683594 250.789062 C 200.558594 240.601562 201.023438 224.265625 191.792969 213.699219 C 189.601562 211.203125 187.003906 209.242188 183.996094 207.828125 C 183.261719 207.476562 182.433594 207.242188 181.910156 208.082031 C 181.375 208.929688 181.941406 209.546875 182.628906 210.023438 C 183.394531 210.558594 184.164062 211.09375 184.96875 211.570312 C 185.863281 212.101562 186.171875 212.738281 185.585938 213.683594 C 185.378906 214.015625 185.230469 214.378906 185.058594 214.726562 C 181.867188 221.175781 177.214844 226.527344 172.296875 231.675781 C 161.421875 243.0625 148.992188 252.128906 134.003906 257.40625 C 130.390625 258.679688 126.746094 259.859375 122.9375 260.316406 C 114.667969 261.265625 106.425781 261.074219 98.210938 259.742188 C 84.078125 257.527344 71.324219 251.859375 59.53125 243.933594 C 55.523438 241.246094 51.894531 238.125 48.632812 234.570312 C 45.375 231.015625 42.582031 227.128906 40.253906 222.90625 C 37.453125 217.882812 35.503906 212.585938 35.105469 206.769531 C 33.980469 190.367188 47.789062 177.265625 64.070312 179.507812 C 71.25 180.496094 76.71875 184.253906 80.039062 190.785156 C 81.863281 194.375 82.429688 198.195312 81.136719 202.128906 C 80.582031 203.8125 79.636719 205.210938 77.90625 205.921875 C 75.921875 206.734375 74.554688 206.039062 74.597656 203.941406 C 74.671875 200.699219 71.484375 198.148438 68.539062 197.992188 C 61.34375 197.613281 54.730469 203.59375 54.484375 210.800781 C 54.347656 214.773438 55.589844 218.324219 57.597656 221.664062 C 64.546875 233.230469 78.492188 239.429688 92.429688 237.390625 C 103.140625 235.824219 112.796875 231.59375 121.96875 226.117188 C 133.6875 219.121094 142.242188 208.9375 149.886719 197.886719 C 150.84375 196.511719 150.816406 195.332031 150 194.996094 C 148.757812 194.484375 148.167969 195.4375 147.554688 196.25 C 146.191406 198.054688 144.886719 199.910156 143.457031 201.65625 C 129.371094 218.859375 111.164062 226.582031 89.039062 225.128906 C 82.734375 224.714844 76.738281 223.074219 71.261719 219.8125 C 68.550781 218.285156 66.390625 216.191406 64.78125 213.527344 C 62.878906 210.25 63.042969 206.980469 64.890625 203.746094 C 65.238281 203.070312 65.726562 202.527344 66.359375 202.109375 C 66.992188 201.691406 67.6875 201.453125 68.445312 201.398438 C 70.726562 201.195312 71.585938 201.902344 71.761719 204.207031 C 72.050781 208.039062 75.058594 209.933594 78.652344 208.570312 C 79.730469 208.175781 80.6875 207.589844 81.523438 206.804688 C 82.359375 206.023438 83.011719 205.105469 83.472656 204.054688 C 84.378906 202.03125 84.808594 199.90625 84.765625 197.6875 C 84.761719 196.582031 85.097656 196.136719 86.257812 196.25 C 88.761719 196.4375 91.25 196.328125 93.726562 195.917969 C 97.324219 195.398438 100.710938 194.3125 103.691406 192.144531 C 106.972656 189.757812 108.574219 186.59375 108.339844 182.492188 C 108.152344 179.152344 107.113281 176.074219 105.722656 173.085938 C 104.101562 169.609375 101.976562 166.429688 99.921875 163.203125 C 96.691406 158.125 93.8125 152.871094 91.6875 147.214844 C 86.394531 133.140625 86.867188 119.265625 93.101562 105.59375 C 96.601562 97.835938 101.320312 90.910156 107.257812 84.8125 C 111.628906 80.332031 116.335938 76.25 121.386719 72.558594 C 131.585938 65.117188 142.832031 60.15625 155.390625 58.398438 C 165.042969 57.074219 174.679688 57.1875 184.300781 58.738281 C 198.019531 60.886719 209.957031 66.960938 220.445312 75.835938 C 225.792969 80.367188 230.578125 85.546875 235.074219 90.957031 C 240.707031 97.757812 244.988281 105.320312 247.921875 113.648438 C 249.339844 117.617188 250.421875 121.691406 251.636719 125.722656 C 253.660156 132.445312 255.675781 139.1875 259.101562 145.371094 C 265.078125 156.167969 274.847656 161.007812 287.050781 159.3125 C 288.398438 159.132812 289.722656 158.847656 291.023438 158.457031 C 292.324219 158.0625 293.582031 157.566406 294.800781 156.964844 C 296.023438 156.367188 297.183594 155.671875 298.289062 154.882812 C 299.394531 154.09375 300.429688 153.222656 301.394531 152.261719 C 302.355469 151.304688 303.234375 150.273438 304.03125 149.171875 C 304.824219 148.070312 305.523438 146.914062 306.128906 145.699219 C 306.734375 144.480469 307.238281 143.222656 307.640625 141.925781 C 308.039062 140.628906 308.332031 139.304688 308.515625 137.960938 C 309.269531 132.417969 308.199219 127.082031 306.082031 121.949219 C 303.925781 116.710938 300.875 112.011719 297.363281 107.597656 C 294.542969 104.050781 291.496094 100.707031 288.472656 97.339844 C 284.914062 93.492188 281.742188 89.347656 278.957031 84.90625 C 271.441406 72.558594 271.269531 59.875 277.863281 47.242188 C 283.519531 36.40625 292.941406 31.015625 305.078125 30.863281 C 313.574219 30.753906 320.535156 34.773438 326.519531 40.507812 C 332.929688 46.65625 335.175781 54.390625 334.648438 63.070312 C 334.550781 64.796875 334.191406 66.46875 333.566406 68.085938 C 331.339844 73.757812 325.242188 77.402344 319.808594 76.308594 C 315.261719 75.390625 313.433594 71.570312 315.597656 67.476562 C 316.21875 66.304688 316.964844 65.195312 317.542969 64.007812 C 319.546875 59.867188 317.796875 55.367188 313.535156 53.578125 C 308.550781 51.484375 303.023438 53.347656 300.464844 58.128906 C 298.441406 61.910156 297.800781 65.96875 298.984375 70.140625 C 300.007812 73.765625 301.46875 77.207031 304.164062 79.976562 C 305.523438 81.375 306.816406 82.839844 308.183594 84.226562 C 312.671875 88.785156 317.382812 93.140625 321.648438 97.898438 C 334.679688 112.441406 341.527344 129.394531 340.980469 149.109375 C 340.835938 154.457031 339.800781 159.632812 337.878906 164.628906 C 333.4375 176.234375 324.742188 182.660156 312.886719 185.273438 C 311.800781 185.46875 310.714844 185.472656 309.625 185.28125 C 304.984375 184.679688 300.332031 184.144531 295.703125 183.460938 C 288.59375 182.414062 281.550781 181.046875 274.773438 178.570312 C 268.59375 176.3125 263.105469 172.996094 258.683594 168.046875 C 258.328125 167.632812 257.925781 167.265625 257.480469 166.949219 C 257.257812 166.765625 257.007812 166.671875 256.722656 166.660156 C 256.4375 166.652344 256.175781 166.730469 255.945312 166.894531 C 255.335938 167.34375 255.371094 167.964844 255.640625 168.578125 C 256.109375 169.488281 256.722656 170.292969 257.472656 170.988281 C 261.960938 175.734375 267.4375 178.949219 273.507812 181.222656 C 279.007812 183.28125 284.714844 184.5625 290.484375 185.597656 C 299.164062 187.15625 307.960938 187.886719 316.664062 189.285156 C 325.867188 190.765625 334.886719 192.875 343.1875 197.324219 C 351.191406 201.613281 357.449219 207.625 361.253906 215.972656 C 365.699219 225.71875 364.824219 235.089844 359.035156 244.027344 C 355.527344 249.4375 350.828125 253.589844 345.25 256.78125 C 340.882812 259.277344 336.1875 260.957031 331.363281 262.289062 C 326.703125 263.574219 322.003906 264.722656 317.347656 266.03125 C 312.1875 267.417969 307.328125 269.5 302.769531 272.285156 C 301.476562 273.027344 300.308594 273.9375 299.273438 275.007812 C 296.011719 278.621094 297.605469 285.015625 302.179688 286.683594 C 303.105469 287.019531 304.121094 287.265625 304.644531 286.1875 C 305.164062 285.125 304.238281 284.703125 303.464844 284.28125 C 302.828125 283.9375 302.011719 283.726562 301.96875 282.691406 C 303.863281 282.207031 305.730469 282.304688 307.566406 282.992188 C 312.726562 284.695312 314.519531 289.183594 311.988281 293.984375 C 310.933594 295.945312 309.476562 297.546875 307.625 298.785156 C 306.132812 299.804688 304.535156 300.605469 302.824219 301.1875 C 299.984375 302.21875 297.0625 302.875 294.054688 303.160156 C 291.050781 303.445312 288.054688 303.347656 285.074219 302.867188 C 279.097656 301.871094 273.695312 299.597656 269.195312 295.433594 C 262.460938 289.203125 260.839844 282.371094 264.042969 273.785156 C 265.253906 270.550781 266.886719 267.542969 268.949219 264.769531 C 271.007812 261.996094 273.410156 259.5625 276.160156 257.464844 C 280.117188 254.375 284.453125 251.921875 288.941406 249.707031 C 294.257812 247.082031 299.59375 244.496094 304.882812 241.824219 C 308.421875 240.105469 311.617188 237.890625 314.464844 235.179688 C 316.617188 233.070312 318.355469 230.679688 319.128906 227.730469 C 320.132812 223.886719 319.714844 220.292969 316.84375 217.273438 C 316.269531 216.605469 315.570312 216.128906 314.738281 215.835938 C 314.089844 215.640625 313.472656 215.6875 313.09375 216.324219 C 312.953125 216.574219 312.910156 216.839844 312.964844 217.121094 C 313.019531 217.402344 313.15625 217.632812 313.382812 217.8125 C 313.820312 218.253906 314.332031 218.625 314.753906 219.082031 C 315.949219 220.367188 316.777344 221.804688 316.554688 223.867188 C 314.578125 222.796875 312.667969 221.964844 310.558594 221.734375 C 307.863281 221.441406 306.355469 222.3125 305.324219 224.871094 C 305.132812 225.347656 304.96875 225.753906 304.414062 225.757812 C 301.824219 225.773438 299.230469 225.765625 296.15625 225.765625 C 297.226562 225.136719 297.902344 224.800781 298.519531 224.371094 C 300.863281 222.738281 301.171875 220.265625 299.28125 218.15625 C 298.8125 217.628906 298.28125 217.175781 297.683594 216.800781 C 294.367188 214.765625 290.804688 214.464844 287.101562 215.449219 C 286.101562 215.730469 285.234375 216.234375 284.496094 216.964844 C 282.886719 218.5 282.703125 220.40625 284.042969 222.199219 C 285.160156 223.695312 286.726562 224.550781 288.460938 225.128906 C 289.832031 225.5625 291.226562 225.882812 292.648438 226.09375 C 283.933594 226.878906 275.234375 227.777344 266.488281 226.789062 C 262.144531 226.296875 257.800781 225.835938 253.582031 224.605469 C 250.921875 223.855469 248.5 222.628906 246.320312 220.929688 C 245.640625 220.394531 245.007812 219.898438 245.296875 218.910156 C 246.171875 218.769531 246.773438 219.207031 247.429688 219.40625 C 249.003906 219.933594 250.617188 220.136719 252.273438 220.019531 C 254.695312 219.777344 256.945312 219.128906 257.941406 216.585938 C 258.738281 214.546875 257.808594 212.085938 255.378906 210.316406 C 251.488281 207.480469 247.253906 206.421875 242.636719 208.542969 C 242.046875 208.816406 241.515625 209.207031 241.0625 208.402344 C 239.820312 206.191406 238.585938 203.976562 237.367188 201.796875 C 237.503906 201.667969 237.667969 201.59375 237.855469 201.578125 C 238.042969 201.5625 238.214844 201.605469 238.375 201.707031 C 243.054688 203.464844 247.816406 204.949219 252.667969 206.15625 C 266.589844 209.824219 280.8125 211.738281 295.082031 213.355469 C 298.890625 213.789062 302.660156 214.359375 306.300781 215.605469 C 306.664062 215.746094 307.039062 215.847656 307.421875 215.914062 C 307.992188 215.988281 308.527344 215.886719 308.78125 215.269531 C 308.890625 215.007812 308.90625 214.742188 308.832031 214.46875 C 308.761719 214.195312 308.609375 213.972656 308.386719 213.796875 C 307.832031 213.34375 307.207031 213.035156 306.511719 212.871094 C 304.363281 212.144531 302.167969 211.613281 299.925781 211.277344 C 292.039062 210.238281 284.132812 209.359375 276.269531 208.128906 C 265.152344 206.386719 254.167969 204.101562 243.46875 200.570312 C 238.324219 198.871094 233.410156 196.753906 229.339844 193.027344 C 228.050781 191.863281 226.605469 190.949219 225.003906 190.285156 C 224.082031 189.894531 222.910156 189.289062 222.296875 190.460938 C 221.640625 191.714844 222.910156 192.183594 223.777344 192.644531 C 225.796875 193.703125 227.609375 195.042969 229.210938 196.664062 C 232.710938 200.171875 235.613281 204.117188 237.921875 208.503906 C 240.230469 212.886719 241.84375 217.511719 242.761719 222.378906 C 245.1875 234.882812 243.617188 247.089844 238.902344 258.871094 C 237.148438 263.261719 234.40625 267.0625 231.09375 270.445312 C 227.546875 274.015625 223.535156 276.949219 219.050781 279.242188 C 211.976562 282.941406 204.402344 284.980469 196.519531 285.957031 C 190.402344 286.71875 184.269531 287.339844 178.160156 288.148438 C 173.265625 288.738281 168.476562 289.8125 163.796875 291.367188 C 160.507812 292.503906 157.554688 294.183594 155.183594 296.804688 C 150.707031 301.75 153.511719 309.738281 157.441406 312.078125 C 159.746094 313.453125 162.019531 313.566406 164.285156 312.160156 C 166.757812 310.628906 166.933594 307.503906 164.742188 305.605469 C 164.285156 305.207031 163.570312 305.140625 163.242188 304.308594 Z M 32.777344 197.339844 C 33.128906 197.984375 32.796875 198.574219 32.683594 199.171875 C 32.035156 202.488281 31.929688 205.820312 32.367188 209.171875 C 33.164062 214.992188 35.355469 220.285156 38.265625 225.320312 C 38.824219 226.28125 39.011719 226.953125 37.824219 227.5625 C 37.136719 227.945312 36.53125 228.429688 36 229.007812 C 33.960938 231.085938 32.488281 233.496094 32.878906 236.515625 C 33.433594 240.773438 35.9375 243.648438 39.953125 245.015625 C 43.90625 246.363281 47.703125 246.125 50.648438 242.714844 C 51.511719 241.710938 52.039062 241.839844 52.90625 242.574219 C 55.367188 244.625 57.949219 246.5 60.660156 248.203125 C 62.472656 249.367188 62.496094 249.429688 61.1875 251.226562 C 56.4375 257.75 50.015625 261.746094 42.226562 263.609375 C 40.074219 264.15625 37.90625 264.230469 35.71875 263.84375 C 24.167969 261.652344 15.960938 255.386719 11.976562 244.113281 C 10.695312 240.484375 10.238281 236.710938 10.113281 232.855469 C 9.667969 219.425781 21.023438 203.011719 30.664062 198.046875 C 31.324219 197.707031 31.910156 197.078125 32.777344 197.339844 Z M 64.617188 176.15625 C 64.347656 176.296875 64.214844 176.433594 64.09375 176.421875 C 61.242188 176.089844 58.40625 176.179688 55.585938 176.699219 C 52.765625 177.21875 50.082031 178.140625 47.539062 179.46875 C 46.527344 179.992188 45.953125 179.539062 45.335938 178.855469 C 43.550781 176.882812 41.949219 174.773438 40.53125 172.523438 C 36.164062 165.640625 33.71875 158.050781 33.632812 149.972656 C 33.511719 138.957031 38.136719 129.90625 47.175781 123.601562 C 54.101562 118.773438 61.875 118.152344 69.703125 121.472656 C 76.234375 124.246094 80.75 128.96875 82.390625 136.070312 C 82.988281 138.335938 82.855469 140.558594 81.996094 142.738281 C 81.53125 144.039062 80.710938 145.050781 79.535156 145.769531 C 78.328125 146.453125 77.460938 146.308594 76.726562 145.148438 C 76.214844 144.269531 75.792969 143.355469 75.449219 142.398438 C 74.640625 140.359375 73.71875 138.390625 72.261719 136.714844 C 67.703125 131.460938 62.207031 131.667969 58.21875 137.34375 C 54.339844 142.863281 53.289062 149.085938 54.296875 155.640625 C 54.808594 159.101562 55.8125 162.410156 57.3125 165.574219 C 58.808594 168.734375 60.734375 171.609375 63.085938 174.199219 C 63.632812 174.808594 64.324219 175.34375 64.617188 176.15625 Z M 249.394531 108.660156 C 250.015625 108.304688 250.46875 108.527344 250.914062 108.613281 C 255.523438 109.476562 259.996094 110.808594 264.328125 112.613281 C 273.234375 116.316406 281.105469 121.53125 287.457031 128.859375 C 291.125 133.09375 293.929688 137.828125 294.949219 143.445312 C 295.597656 146.652344 295.375 149.800781 294.277344 152.886719 C 294.019531 153.75 293.476562 154.355469 292.644531 154.703125 C 285.707031 157.746094 274.445312 158.308594 266.527344 150.46875 C 263.769531 147.65625 261.609375 144.441406 260.054688 140.824219 C 258.601562 137.542969 257.332031 134.195312 256.238281 130.777344 C 253.871094 123.605469 252.191406 116.210938 249.375 109.179688 C 249.351562 109.007812 249.355469 108.832031 249.394531 108.660156 Z M 85.609375 137.039062 C 85.726562 137.363281 85.863281 137.710938 85.980469 138.070312 C 86.097656 138.4375 86.210938 138.8125 86.296875 139.191406 C 88.1875 147.65625 91.648438 155.460938 96.242188 162.789062 C 97.984375 165.5625 99.722656 168.339844 101.417969 171.140625 C 102.351562 172.675781 103.140625 174.285156 103.785156 175.964844 C 104.082031 176.746094 103.808594 177.148438 102.988281 177.226562 C 101.195312 177.382812 99.402344 177.332031 97.621094 177.070312 C 86.117188 175.460938 76 170.714844 66.996094 163.476562 C 65.164062 162.003906 63.527344 160.339844 62.078125 158.492188 C 58.628906 154.097656 57.601562 149.125 58.65625 143.714844 C 59.175781 141.066406 60.273438 138.660156 62.433594 136.890625 C 64.285156 135.371094 65.753906 135.265625 67.800781 136.480469 C 69.976562 137.773438 71.316406 139.75 72.285156 142.019531 C 72.863281 143.382812 73.328125 144.804688 74.019531 146.109375 C 75.699219 149.285156 78.789062 149.941406 81.660156 147.765625 C 83.828125 146.125 84.964844 143.84375 85.339844 141.203125 C 85.53125 139.828125 85.527344 138.421875 85.609375 137.039062 Z M 319.710938 186.738281 C 320.355469 185.910156 320.929688 185.847656 321.421875 185.636719 C 330.386719 181.789062 336.75 175.410156 340.4375 166.335938 C 344.632812 156.007812 345 145.289062 343.070312 134.566406 C 341.976562 128.46875 340.175781 122.585938 337.671875 116.921875 C 335.167969 111.253906 332.027344 105.964844 328.257812 101.050781 C 327.863281 100.535156 327.339844 100.070312 327.132812 99.175781 C 327.414062 99.292969 327.683594 99.429688 327.9375 99.597656 C 332.269531 103.542969 336.296875 107.78125 340.023438 112.304688 C 340.773438 113.203125 340.570312 113.863281 340.074219 114.796875 C 338.527344 117.710938 339 120.578125 341.234375 122.972656 C 342.984375 124.84375 345.035156 125.9375 347.683594 125.554688 C 348.210938 125.476562 348.820312 125.246094 349.179688 125.835938 C 349.785156 126.839844 350.539062 127.808594 350.648438 129.257812 C 350.023438 129.027344 349.671875 128.875 349.304688 128.765625 C 346.785156 128.015625 345.042969 128.910156 344.171875 131.390625 C 343.167969 134.253906 344.335938 138.230469 346.714844 140.070312 C 349.21875 142 351.996094 141.269531 353.179688 138.371094 C 353.394531 137.839844 353.3125 137.152344 353.949219 136.800781 C 354.644531 137.460938 354.738281 138.351562 355 139.148438 C 356.261719 143.015625 357.171875 146.960938 357.738281 150.988281 C 358.46875 156.261719 358.714844 161.546875 357.9375 166.84375 C 357.8125 167.699219 357.699219 168.457031 356.878906 169.054688 C 353.140625 171.765625 352.382812 175.628906 353.140625 179.851562 C 353.378906 181.183594 353.382812 182.265625 352.730469 183.398438 C 352.222656 184.273438 351.742188 185.167969 351.265625 186.0625 C 350.753906 187.023438 350.097656 187.59375 348.875 187.546875 C 348.238281 187.546875 347.632812 187.6875 347.058594 187.964844 C 346.484375 188.246094 346 188.636719 345.609375 189.140625 C 344.808594 189.996094 344.097656 190.921875 343.476562 191.917969 C 342.46875 193.683594 342.457031 193.613281 340.582031 192.742188 C 340.027344 192.484375 339.378906 192.371094 338.9375 191.667969 C 339.515625 190.484375 340.117188 189.214844 340.25 187.800781 C 340.539062 184.660156 338.46875 182.355469 335.316406 182.269531 C 334.039062 182.21875 332.839844 182.503906 331.726562 183.128906 C 329.9375 184.046875 328.5625 185.390625 327.601562 187.15625 C 327.308594 187.726562 327.101562 188.304688 326.253906 188.117188 C 324.152344 187.652344 322.042969 187.226562 319.710938 186.738281 Z M 188.476562 214.789062 C 190.183594 216.0625 192.730469 219.578125 193.179688 221.277344 C 193.496094 222.488281 193.058594 223.066406 191.78125 222.847656 C 189.824219 222.511719 188.253906 223.195312 186.878906 224.460938 C 184.882812 226.25 183.292969 228.347656 182.105469 230.75 C 181.15625 232.707031 180.628906 234.746094 181.460938 236.835938 C 181.925781 238.011719 181.355469 238.53125 180.605469 239.171875 C 179.832031 239.835938 179.03125 239.632812 178.179688 239.480469 C 175.765625 239.054688 173.726562 239.816406 172.007812 241.511719 C 170.753906 242.71875 169.800781 244.128906 169.140625 245.738281 C 168.777344 246.742188 168.109375 247.457031 167.132812 247.878906 C 166.351562 248.234375 165.585938 248.625 164.84375 249.050781 C 164.378906 249.351562 163.871094 249.53125 163.324219 249.59375 C 162.773438 249.65625 162.242188 249.589844 161.722656 249.402344 C 160.632812 249.023438 159.566406 249.074219 158.523438 249.558594 C 156.660156 250.390625 154.785156 251.355469 153.527344 252.925781 C 152.511719 254.203125 151.296875 254.769531 149.878906 255.207031 C 148.539062 255.617188 147.199219 256.03125 145.855469 256.429688 C 145.40625 256.5625 144.9375 256.773438 144.332031 256.449219 C 162.988281 246.539062 177.96875 233.027344 188.476562 214.789062 Z M 121.300781 222.65625 C 121.316406 222.839844 121.269531 223.011719 121.167969 223.171875 C 121.066406 223.328125 120.929688 223.4375 120.753906 223.5 C 111.777344 228.835938 102.390625 233.089844 91.917969 234.511719 C 82.746094 235.757812 74.417969 233.667969 67.035156 228.085938 C 65.054688 226.609375 63.316406 224.882812 61.820312 222.917969 C 60.324219 220.949219 59.128906 218.816406 58.234375 216.511719 C 57.667969 215.167969 57.40625 213.769531 57.449219 212.3125 C 58.878906 214.160156 60.207031 215.3125 62.097656 215.585938 C 62.6875 215.671875 62.988281 216.167969 63.335938 216.585938 C 63.847656 217.273438 64.410156 217.921875 65.015625 218.527344 C 65.421875 218.890625 65.730469 219.324219 65.949219 219.820312 C 66.164062 220.320312 66.269531 220.84375 66.257812 221.386719 C 66.550781 227.027344 73.484375 230.644531 78.226562 227.597656 C 79.472656 226.792969 80.558594 226.554688 81.914062 227.007812 C 82.589844 227.203125 83.277344 227.339844 83.976562 227.417969 C 84.371094 227.441406 84.726562 227.574219 85.042969 227.8125 C 85.359375 228.046875 85.585938 228.351562 85.722656 228.722656 C 86.535156 230.695312 88.203125 231.734375 90.160156 232.183594 C 94.429688 233.167969 98.214844 232.042969 101.304688 228.988281 C 101.992188 228.230469 102.839844 227.78125 103.851562 227.640625 C 109.113281 226.855469 114.214844 225.46875 119.148438 223.480469 C 119.84375 223.203125 120.546875 222.945312 121.300781 222.65625 Z M 57.863281 158.378906 C 58.636719 158.375 58.789062 158.890625 59.039062 159.242188 C 60.394531 161.160156 61.957031 162.894531 63.71875 164.445312 C 64.570312 165.175781 65.070312 165.867188 64.558594 167.042969 C 64.273438 167.699219 64.503906 168.441406 64.839844 169.074219 C 65.394531 170.117188 66.113281 171.03125 66.992188 171.820312 C 67.871094 172.609375 68.859375 173.222656 69.957031 173.660156 C 70.789062 174.050781 71.660156 174.199219 72.574219 174.109375 C 73.488281 174.019531 74.3125 173.699219 75.050781 173.152344 C 76.117188 172.410156 76.910156 173.519531 77.78125 173.910156 C 78.421875 174.199219 78.289062 174.746094 78.109375 175.3125 C 77.511719 177.226562 78.351562 178.691406 79.765625 179.832031 C 82.359375 181.933594 85.375 182.429688 88.582031 181.757812 C 89.664062 181.53125 90.675781 181.007812 91.136719 179.902344 C 91.613281 178.75 92.425781 179.105469 93.277344 179.253906 C 94.226562 179.414062 94.539062 179.859375 94.5 180.839844 C 94.394531 183.488281 95.960938 185.015625 98.269531 185.855469 C 99.921875 186.53125 101.601562 186.625 103.316406 186.144531 C 103.777344 186.003906 104.304688 185.589844 104.835938 186.15625 C 104.5 187.625 103.726562 188.363281 102.066406 188.296875 C 100.59375 188.242188 99.117188 188.324219 97.636719 188.1875 C 87.886719 187.304688 79.21875 183.449219 71.355469 177.941406 C 68.335938 175.871094 65.730469 173.371094 63.53125 170.441406 C 61.335938 167.515625 59.664062 164.3125 58.519531 160.835938 C 58.257812 160.042969 58.085938 159.226562 57.863281 158.378906 Z M 43.820312 242.835938 C 42.476562 242.800781 41.199219 242.496094 39.980469 241.921875 C 34.992188 239.496094 34.378906 233.730469 38.75 230.328125 C 40.257812 229.15625 40.902344 229.316406 41.925781 230.90625 C 42.441406 231.714844 42.078125 232.167969 41.585938 232.730469 C 40.617188 233.84375 40.023438 235.089844 40.652344 236.582031 C 40.761719 236.9375 40.96875 237.214844 41.277344 237.414062 C 41.585938 237.617188 41.921875 237.695312 42.285156 237.652344 C 43.058594 237.554688 43.261719 236.976562 43.261719 236.289062 C 43.257812 236.054688 43.242188 235.820312 43.253906 235.589844 C 43.246094 235.347656 43.300781 235.121094 43.421875 234.910156 C 43.539062 234.703125 43.703125 234.539062 43.914062 234.421875 C 44.4375 234.167969 44.777344 234.59375 45.09375 234.9375 C 46.207031 236.136719 47.277344 237.378906 48.445312 238.523438 C 49.335938 239.398438 49.132812 240.132812 48.433594 240.949219 C 47.21875 242.375 45.589844 242.765625 43.820312 242.835938 Z M 251.53125 218.5625 C 249.308594 218.519531 247.234375 217.949219 245.304688 216.851562 C 243.785156 215.933594 243.699219 214.265625 243.039062 212.898438 C 242.972656 212.757812 242.914062 212.613281 242.855469 212.46875 C 242.117188 210.542969 242.328125 210.058594 244.226562 209.339844 C 247.773438 207.992188 253.660156 209.792969 255.8125 212.878906 C 257.417969 215.179688 256.734375 217.242188 254.054688 218.175781 C 253.234375 218.449219 252.394531 218.578125 251.53125 218.5625 Z M 290.523438 216.371094 C 293.34375 216.347656 295.792969 216.992188 297.789062 218.796875 C 299.472656 220.316406 299.304688 222.046875 297.476562 223.238281 C 294.367188 225.265625 287.972656 224.414062 285.554688 221.648438 C 284.15625 220.046875 284.496094 218.242188 286.40625 217.238281 C 287.699219 216.570312 289.070312 216.28125 290.523438 216.371094 Z M 81.65625 187.074219 C 84.664062 187.996094 87.300781 189.09375 90.074219 189.75 C 92.867188 190.410156 95.734375 190.628906 98.6875 191.183594 C 98.417969 191.492188 98.308594 191.734375 98.128906 191.804688 C 93.972656 193.421875 89.65625 193.660156 85.269531 193.265625 C 84.988281 193.265625 84.730469 193.1875 84.492188 193.039062 C 84.253906 192.886719 84.078125 192.683594 83.957031 192.429688 C 83.230469 190.746094 82.511719 189.0625 81.65625 187.074219 Z M 190.3125 228.414062 C 188.796875 230.777344 187.054688 232.964844 185.085938 234.96875 C 184.535156 235.53125 184.042969 236.742188 183.144531 236.257812 C 182.269531 235.792969 182.625 234.59375 182.710938 233.679688 C 182.730469 233.445312 182.773438 233.21875 182.84375 232.996094 C 184.011719 229.761719 185.949219 227.089844 188.65625 224.972656 C 189.019531 224.664062 189.425781 224.445312 189.886719 224.316406 C 190.347656 224.1875 190.808594 224.164062 191.28125 224.246094 C 192.050781 224.382812 192.332031 224.824219 192.023438 225.59375 C 191.886719 225.964844 191.652344 226.265625 191.324219 226.492188 C 190.996094 226.71875 190.636719 226.828125 190.238281 226.824219 C 188.359375 226.992188 187.125 228.117188 186.316406 229.757812 C 186.109375 230.179688 185.882812 230.691406 186.355469 231.023438 C 186.875 231.394531 187.1875 230.910156 187.449219 230.53125 C 188.046875 229.652344 188.515625 228.636719 190.3125 228.414062 Z M 101.191406 184.984375 C 99.453125 184.789062 97.628906 184.429688 96.457031 182.703125 C 96.214844 182.382812 96.066406 182.027344 96.011719 181.628906 C 95.960938 181.234375 96.007812 180.847656 96.15625 180.480469 C 96.535156 179.613281 97.363281 179.917969 98.007812 180.011719 C 99.945312 180.351562 101.882812 180.363281 103.824219 180.050781 C 104.28125 179.964844 104.734375 179.953125 105.054688 180.445312 C 105.222656 180.730469 105.339844 181.039062 105.398438 181.367188 C 105.457031 181.691406 105.460938 182.019531 105.402344 182.347656 C 105.34375 182.675781 105.230469 182.984375 105.0625 183.269531 C 104.894531 183.558594 104.683594 183.808594 104.425781 184.019531 C 103.449219 184.683594 102.371094 185.003906 101.191406 184.984375 Z M 315.339844 229.042969 C 313.972656 227.925781 312.710938 227.027344 311.164062 226.679688 C 310.03125 226.421875 308.890625 226.210938 307.753906 225.960938 C 306.648438 225.722656 306.417969 225.035156 307.164062 224.191406 C 307.484375 223.839844 307.867188 223.578125 308.308594 223.40625 C 308.753906 223.238281 309.214844 223.175781 309.6875 223.222656 C 311.433594 223.265625 313.054688 223.734375 314.550781 224.636719 C 316.527344 225.898438 316.683594 226.628906 315.339844 229.042969 Z M 352.070312 135.9375 C 352.015625 136.4375 351.929688 136.929688 351.8125 137.417969 C 351.164062 139.703125 349.394531 140.25 347.574219 138.757812 C 345.714844 137.226562 344.78125 133.867188 345.640625 131.785156 C 346.484375 129.753906 348.277344 129.328125 349.894531 130.820312 C 351.273438 132.097656 351.847656 133.761719 352.070312 135.9375 Z M 338.785156 187.234375 C 338.804688 188.191406 338.601562 189.09375 338.175781 189.949219 C 337.914062 190.488281 337.691406 191.289062 336.914062 191.070312 C 335.921875 190.792969 336.617188 190.050781 336.71875 189.53125 C 336.953125 188.316406 336.992188 187.148438 335.851562 186.371094 C 334.785156 185.644531 333.625 185.800781 332.503906 186.296875 C 331.78125 186.625 331.171875 187.101562 330.675781 187.722656 C 330.441406 188.03125 330.183594 188.324219 329.914062 188.601562 C 329.796875 188.714844 329.660156 188.777344 329.496094 188.789062 C 329.335938 188.804688 329.191406 188.761719 329.058594 188.671875 C 328.734375 188.464844 328.78125 188.152344 328.886719 187.847656 C 329.683594 185.546875 333.558594 183.300781 335.9375 183.753906 C 336.34375 183.824219 336.726562 183.960938 337.082031 184.167969 C 337.441406 184.378906 337.75 184.640625 338.011719 184.960938 C 338.273438 185.28125 338.472656 185.636719 338.605469 186.027344 C 338.738281 186.417969 338.796875 186.820312 338.785156 187.234375 Z M 77.625 225.871094 C 75.527344 227.511719 73.316406 227.53125 70.9375 226.152344 C 68.789062 224.910156 67.851562 223.371094 68.132812 221.28125 C 71.097656 223.226562 74.257812 224.757812 77.625 225.871094 Z M 86.386719 177.632812 C 85.140625 178.109375 84.480469 177.433594 83.730469 177.136719 C 83.339844 176.984375 82.898438 176.917969 82.699219 177.308594 C 82.511719 177.683594 82.804688 178.035156 83.109375 178.304688 C 84.480469 179.519531 86.132812 179.585938 87.863281 178.421875 C 87.996094 178.304688 88.148438 178.226562 88.320312 178.179688 C 88.492188 178.132812 88.664062 178.128906 88.835938 178.160156 C 89.007812 178.195312 89.167969 178.261719 89.308594 178.367188 C 89.453125 178.46875 89.566406 178.601562 89.648438 178.757812 C 90.058594 179.367188 89.4375 179.710938 88.96875 179.976562 C 88.703125 180.144531 88.417969 180.261719 88.113281 180.332031 C 85.390625 180.789062 82.863281 180.367188 80.683594 178.558594 C 80.023438 178.078125 79.625 177.433594 79.480469 176.628906 C 79.355469 175.6875 79.988281 175.0625 80.859375 175.382812 C 82.640625 176.035156 84.382812 176.808594 86.386719 177.632812 Z M 61.621094 203.347656 C 61.136719 204.964844 60.792969 206.613281 60.589844 208.292969 C 60.433594 210.050781 61.171875 211.707031 61.230469 213.539062 C 57.195312 211.308594 57.355469 206.097656 61.621094 203.347656 Z M 87.382812 227.988281 C 89.175781 228.226562 90.773438 227.691406 91.828125 229.355469 C 92.101562 229.78125 92.824219 229.6875 93.371094 229.652344 C 94.464844 229.554688 95.5 229.253906 96.472656 228.75 C 97.871094 228.089844 97.886719 228.125 99.347656 228.605469 C 95.226562 231.945312 89.597656 231.816406 87.382812 227.988281 Z M 340.753906 117.847656 C 340.714844 117.054688 340.898438 116.308594 341.296875 115.621094 C 341.464844 115.363281 341.675781 115.125 342.046875 115.246094 C 342.410156 115.359375 342.472656 115.667969 342.484375 115.976562 C 342.496094 116.203125 342.417969 116.4375 342.40625 116.667969 C 342.210938 120.023438 343.1875 121.414062 346.484375 122.359375 C 347.148438 122.550781 347.792969 122.808594 347.636719 123.523438 C 347.460938 124.316406 346.632812 124.105469 346.050781 124.035156 C 343.292969 123.714844 340.710938 120.675781 340.753906 117.847656 Z M 66.40625 166.953125 C 68.597656 168.367188 70.769531 169.769531 72.933594 171.183594 C 73.242188 171.382812 73.65625 171.570312 73.507812 172.058594 C 73.371094 172.523438 72.917969 172.507812 72.554688 172.550781 C 70.082031 172.832031 66.484375 170.035156 66.125 167.558594 C 66.105469 167.4375 66.246094 167.289062 66.40625 166.953125 Z M 171.484375 245.09375 C 173.117188 241.703125 175.050781 240.515625 177.875 241.230469 C 175.738281 242.792969 173.765625 244.175781 171.484375 245.09375 Z M 331.535156 189 C 331.53125 188.261719 333.195312 187.101562 334.214844 187.164062 C 335.136719 187.214844 335.671875 187.742188 335.585938 188.652344 C 335.519531 189.402344 335.363281 190.226562 334.308594 190.265625 C 333.371094 190.296875 331.542969 189.464844 331.535156 189 Z M 354.824219 178.148438 C 353.886719 176.304688 354.9375 172.800781 356.988281 171.34375 C 356.464844 173.675781 355.746094 175.945312 354.824219 178.148438 Z M 348.328125 189.457031 C 347.628906 190.84375 346.570312 191.859375 345.15625 192.503906 C 345.832031 191.097656 346.554688 189.75 348.328125 189.457031 Z M 160.414062 250.675781 C 158.824219 251.910156 158.824219 251.910156 157.070312 252.089844 C 158.0625 251.3125 158.976562 250.691406 160.414062 250.675781 Z M 345.410156 120.25 C 344.503906 119.839844 343.992188 119.191406 343.917969 117.933594 C 344.914062 118.605469 345.351562 119.300781 345.410156 120.25 Z M 345.410156 120.25 " fill-opacity="1" fill-rule="nonzero"/></g><path fill="#008080" d="M 200.175781 153.601562 C 200.160156 148.722656 199.199219 144.125 196.753906 139.898438 C 195.617188 137.796875 194.035156 136.109375 192.015625 134.832031 C 188.558594 132.742188 185.089844 133.167969 182.238281 136.039062 C 180.511719 137.808594 179.34375 139.894531 178.738281 142.292969 C 178.253906 143.984375 177.941406 145.707031 177.792969 147.457031 C 177.648438 149.210938 177.671875 150.960938 177.867188 152.707031 C 178.0625 154.457031 178.425781 156.167969 178.953125 157.84375 C 179.484375 159.519531 180.167969 161.128906 181.011719 162.675781 C 181.9375 164.421875 183.167969 165.914062 184.714844 167.148438 C 188.589844 170.269531 193.105469 169.851562 196.296875 166.039062 C 198.578125 163.3125 199.5625 160.054688 199.976562 156.59375 C 200.097656 155.589844 200.113281 154.574219 200.175781 153.601562 Z M 186.582031 144.816406 C 186.777344 142.734375 187.25 140.707031 189.164062 139.390625 C 190.941406 138.164062 192.300781 138.394531 193.503906 140.121094 C 195.59375 143.125 196.585938 146.523438 197.074219 150.109375 C 197.152344 150.621094 197.085938 151.113281 196.875 151.585938 C 196.664062 152.058594 196.347656 152.441406 195.917969 152.726562 C 194.285156 154.015625 191.996094 153.941406 190.109375 152.445312 C 187.6875 150.519531 186.761719 147.871094 186.582031 144.816406 Z M 189.976562 166.363281 C 188.121094 166.269531 186.585938 165.300781 185.335938 163.835938 C 184.597656 162.972656 184.71875 162.398438 185.65625 161.75 C 187.5625 160.433594 190.804688 161.238281 191.949219 163.308594 C 192.921875 165.070312 192.15625 166.34375 189.976562 166.363281 Z M 189.976562 166.363281 " fill-opacity="1" fill-rule="nonzero"/><path fill="#008080" d="M 214.671875 144.511719 C 214.757812 148.457031 215.691406 152.191406 217.46875 155.71875 C 218.320312 157.40625 219.441406 158.890625 220.828125 160.171875 C 225.109375 164.027344 230.300781 163.554688 233.84375 158.984375 C 235.042969 157.417969 235.902344 155.683594 236.417969 153.777344 C 237.292969 150.75 237.605469 147.667969 237.347656 144.53125 C 237.089844 141.390625 236.28125 138.398438 234.921875 135.554688 C 233.882812 133.332031 232.417969 131.4375 230.53125 129.867188 C 230.179688 129.554688 229.804688 129.277344 229.40625 129.03125 C 229.007812 128.785156 228.589844 128.578125 228.152344 128.40625 C 227.714844 128.234375 227.269531 128.105469 226.808594 128.011719 C 226.347656 127.917969 225.886719 127.867188 225.417969 127.859375 C 224.949219 127.847656 224.480469 127.878906 224.019531 127.953125 C 223.554688 128.027344 223.101562 128.136719 222.660156 128.292969 C 222.214844 128.445312 221.789062 128.632812 221.378906 128.863281 C 220.972656 129.089844 220.585938 129.355469 220.222656 129.648438 C 218.492188 131.058594 217.222656 132.804688 216.410156 134.882812 C 215.171875 137.796875 214.71875 140.859375 214.671875 144.511719 Z M 222.898438 139.316406 C 223.023438 136.710938 223.691406 134.355469 225.894531 132.734375 C 227.507812 131.546875 228.632812 131.664062 229.980469 133.15625 C 232.019531 135.414062 233.179688 138.128906 233.828125 141.0625 C 234.300781 143.199219 233.039062 145.535156 230.921875 146.675781 C 229.011719 147.707031 226.839844 147.292969 225.203125 145.519531 C 223.582031 143.773438 222.976562 141.628906 222.898438 139.316406 Z M 224.289062 154.46875 C 226.730469 154.351562 228.542969 155.597656 229.070312 157.609375 C 229.40625 158.886719 229.015625 159.550781 227.714844 159.746094 C 226.894531 159.863281 226.089844 159.800781 225.296875 159.550781 C 224.507812 159.304688 223.808594 158.898438 223.203125 158.332031 C 222.375 157.605469 220.925781 156.894531 221.398438 155.683594 C 221.8125 154.621094 223.339844 154.621094 224.289062 154.46875 Z M 224.289062 154.46875 " fill-opacity="1" fill-rule="nonzero"/><path fill="#008080" d="M 137.84375 164.066406 C 137.472656 157.636719 135.097656 152.125 130.152344 147.871094 C 127.476562 145.570312 124.367188 144.203125 120.761719 144.242188 C 119.097656 144.261719 118.195312 144.765625 118.105469 145.625 C 118.015625 146.507812 118.753906 146.992188 120.609375 147.039062 C 121.867188 147.066406 123.089844 147.296875 124.273438 147.730469 C 125.457031 148.160156 126.539062 148.773438 127.515625 149.566406 C 132.347656 153.394531 134.703125 158.5 134.8125 164.605469 C 134.875 168.0625 133.421875 170.953125 130.871094 173.28125 C 130.351562 173.753906 129.800781 174.191406 129.316406 174.699219 C 129.066406 174.914062 128.921875 175.183594 128.878906 175.511719 C 128.835938 175.835938 128.90625 176.136719 129.089844 176.40625 C 129.550781 177.105469 130.238281 177.125 130.957031 176.832031 C 131.675781 176.503906 132.3125 176.0625 132.867188 175.503906 C 136.191406 172.425781 137.96875 168.671875 137.84375 164.066406 Z M 137.84375 164.066406 " fill-opacity="1" fill-rule="nonzero"/><path fill="#008080" d="M 229.789062 97.859375 C 229.546875 95.800781 228.820312 93.925781 227.613281 92.242188 C 221.890625 84.0625 214.605469 77.828125 205.0625 74.488281 C 204.320312 74.242188 203.5625 74.078125 202.789062 73.992188 C 201.570312 73.828125 200.402344 74.027344 199.683594 75.132812 C 199.3125 75.707031 199.117188 76.332031 199.097656 77.011719 C 199.082031 77.691406 199.246094 78.324219 199.585938 78.914062 C 200.28125 80.277344 201.492188 81.148438 202.707031 82.003906 C 206.148438 84.425781 209.523438 86.925781 212.527344 89.898438 C 214.492188 91.796875 216.28125 93.84375 217.898438 96.046875 C 219.0625 97.714844 220.386719 99.238281 221.875 100.625 C 222.492188 101.21875 223.167969 101.742188 223.898438 102.191406 C 225.335938 103.019531 226.875 103.15625 228.332031 102.257812 C 229.691406 101.421875 229.90625 100.03125 229.789062 97.859375 Z M 228.292969 98.453125 C 228.296875 101.066406 226.761719 102.023438 224.738281 100.933594 C 224.132812 100.582031 223.574219 100.160156 223.070312 99.671875 C 221.742188 98.460938 220.558594 97.121094 219.523438 95.648438 C 216.203125 91.078125 212.265625 87.117188 207.714844 83.765625 C 205.976562 82.457031 204.175781 81.21875 202.464844 79.871094 C 200.789062 78.546875 200.167969 77.0625 200.945312 76.140625 C 201.972656 74.917969 203.355469 75.296875 204.601562 75.757812 C 213.835938 79.167969 220.960938 85.234375 226.453125 93.296875 C 227.550781 94.84375 228.164062 96.5625 228.292969 98.453125 Z M 228.292969 98.453125 " fill-opacity="1" fill-rule="nonzero"/><path fill="#008080" d="M 271.402344 223.609375 C 273.242188 223.738281 274.96875 223.355469 276.582031 222.460938 C 279.300781 220.875 279.738281 218.171875 277.695312 215.78125 C 274.789062 212.382812 267.808594 211.140625 263.875 213.324219 C 260.839844 215.007812 260.375 218.023438 262.863281 220.441406 C 265.226562 222.734375 268.1875 223.550781 271.402344 223.609375 Z M 271.90625 222.109375 C 268.925781 222.097656 266.472656 221.429688 264.394531 219.761719 C 261.953125 217.800781 262.359375 215.308594 265.289062 214.253906 C 268.234375 213.191406 271.113281 213.652344 273.90625 214.902344 C 274.699219 215.246094 275.414062 215.710938 276.050781 216.296875 C 278.105469 218.242188 277.777344 220.296875 275.210938 221.421875 C 274.164062 221.914062 273.0625 222.144531 271.90625 222.109375 Z M 271.90625 222.109375 " fill-opacity="1" fill-rule="nonzero"/><path fill="#008080" d="M 187.859375 65.601562 C 187.566406 65.613281 187.28125 65.652344 187 65.71875 C 186.714844 65.785156 186.441406 65.882812 186.179688 66.003906 C 185.914062 66.125 185.664062 66.269531 185.429688 66.441406 C 185.195312 66.613281 184.976562 66.804688 184.78125 67.019531 C 184.582031 67.234375 184.410156 67.464844 184.257812 67.710938 C 184.105469 67.960938 183.980469 68.21875 183.878906 68.492188 C 183.78125 68.765625 183.707031 69.046875 183.660156 69.332031 C 183.617188 69.621094 183.601562 69.910156 183.613281 70.199219 C 183.625 70.527344 183.671875 70.851562 183.75 71.171875 C 183.828125 71.492188 183.9375 71.804688 184.074219 72.101562 C 184.214844 72.402344 184.378906 72.6875 184.570312 72.953125 C 184.765625 73.222656 184.980469 73.46875 185.222656 73.691406 C 185.464844 73.917969 185.722656 74.117188 186.003906 74.292969 C 186.285156 74.464844 186.578125 74.613281 186.886719 74.730469 C 187.195312 74.847656 187.511719 74.933594 187.835938 74.992188 C 188.160156 75.046875 188.488281 75.070312 188.816406 75.0625 C 191.359375 75 193.125 73.164062 193.125 70.582031 C 193.128906 67.691406 190.875 65.558594 187.859375 65.601562 Z M 191.632812 70.625 C 191.628906 71.015625 191.546875 71.394531 191.390625 71.753906 C 191.238281 72.113281 191.019531 72.433594 190.738281 72.707031 C 190.457031 72.980469 190.132812 73.191406 189.769531 73.339844 C 189.40625 73.484375 189.027344 73.558594 188.632812 73.554688 C 186.875 73.542969 185.15625 71.863281 185.121094 70.125 C 185.089844 68.503906 186.601562 67.058594 188.316406 67.074219 C 190.070312 67.089844 191.671875 68.804688 191.632812 70.625 Z M 191.632812 70.625 " fill-opacity="1" fill-rule="nonzero"/><path fill="#008080" d="M 339.964844 172.996094 C 339.933594 175.992188 341.144531 178.175781 343.136719 178.863281 C 345.242188 179.589844 347.660156 178.570312 349.292969 176.183594 C 350.03125 175.164062 350.542969 174.042969 350.824219 172.8125 C 351.105469 171.585938 351.136719 170.351562 350.914062 169.113281 C 350.558594 167.152344 349.597656 165.554688 347.625 164.964844 C 345.652344 164.375 343.964844 165.167969 342.585938 166.609375 C 341.761719 167.472656 341.125 168.453125 340.671875 169.558594 C 340.21875 170.660156 339.984375 171.804688 339.964844 172.996094 Z M 349.535156 170.546875 C 349.515625 172.796875 348.421875 175.277344 346.878906 176.570312 C 344.730469 178.371094 342.394531 177.667969 341.699219 174.949219 C 341.082031 172.539062 341.648438 170.3125 343.09375 168.320312 C 344.359375 166.582031 346.019531 165.890625 347.5 166.40625 C 348.734375 166.839844 349.550781 168.507812 349.535156 170.546875 Z M 349.535156 170.546875 " fill-opacity="1" fill-rule="nonzero"/><path fill="#008080" d="M 345.121094 153.945312 C 345.125 155.53125 345.589844 156.964844 346.519531 158.253906 C 348.28125 160.707031 351.269531 160.855469 353.3125 158.625 C 355.636719 156.09375 355.847656 150.914062 353.742188 148.1875 C 351.886719 145.792969 348.910156 145.691406 346.9375 148 C 345.617188 149.546875 345.132812 151.40625 345.121094 153.945312 Z M 353.671875 152.96875 C 353.742188 153.792969 353.65625 154.59375 353.410156 155.382812 C 353.164062 156.167969 352.777344 156.878906 352.253906 157.515625 C 350.894531 159.128906 348.980469 159.039062 347.71875 157.34375 C 346.105469 155.175781 346.242188 151.121094 348 149.035156 C 349.46875 147.285156 351.363281 147.347656 352.664062 149.203125 C 353.449219 150.339844 353.785156 151.59375 353.671875 152.96875 Z M 353.671875 152.96875 " fill-opacity="1" fill-rule="nonzero"/><path fill="#008080" d="M 247.976562 211.125 C 247.324219 211.128906 246.703125 211.273438 246.113281 211.5625 C 245.640625 211.839844 245.066406 212.222656 245.28125 212.808594 C 245.550781 213.550781 246.164062 213.113281 246.648438 212.9375 C 248.585938 212.230469 250.121094 212.898438 251.429688 214.339844 C 251.734375 214.675781 252.050781 215.15625 252.550781 214.691406 C 252.972656 214.300781 252.75 213.796875 252.503906 213.410156 C 251.433594 211.742188 249.753906 211.261719 247.976562 211.125 Z M 247.976562 211.125 " fill-opacity="1" fill-rule="nonzero"/><path fill="#008080" d="M 290.746094 218.179688 C 289.398438 218.144531 288.496094 218.316406 287.851562 219.125 C 287.707031 219.265625 287.628906 219.4375 287.613281 219.640625 C 287.601562 219.84375 287.65625 220.023438 287.785156 220.183594 C 288.039062 220.496094 288.347656 220.378906 288.617188 220.222656 C 290.628906 219.039062 292.164062 219.855469 293.5 221.398438 C 293.808594 221.753906 294.023438 222.269531 294.570312 221.917969 C 295.15625 221.542969 295.003906 220.96875 294.71875 220.472656 C 293.75 218.808594 292.097656 218.410156 290.746094 218.179688 Z M 290.746094 218.179688 " fill-opacity="1" fill-rule="nonzero"/><path fill="#008080" d="M 101.46875 183.289062 C 102.324219 183.296875 103.179688 183.257812 103.875 182.671875 C 104.011719 182.585938 104.105469 182.464844 104.15625 182.3125 C 104.207031 182.160156 104.203125 182.007812 104.148438 181.859375 C 104.09375 181.707031 103.988281 181.601562 103.839844 181.539062 C 103.6875 181.476562 103.539062 181.484375 103.394531 181.554688 C 102.015625 182.011719 100.664062 181.949219 99.332031 181.371094 C 99.183594 181.304688 99.035156 181.304688 98.886719 181.367188 C 98.738281 181.433594 98.636719 181.542969 98.582031 181.695312 C 98.535156 181.847656 98.539062 182 98.59375 182.148438 C 98.644531 182.296875 98.738281 182.417969 98.875 182.503906 C 99.636719 183.101562 100.5 183.363281 101.46875 183.289062 Z M 101.46875 183.289062 " fill-opacity="1" fill-rule="nonzero"/><path fill="#008080" d="M 346.28125 134.605469 C 346.292969 136.195312 347.382812 137.601562 348.640625 137.644531 C 349.886719 137.6875 350.902344 136.402344 350.84375 134.855469 C 350.789062 133.324219 349.554688 131.871094 348.359375 131.925781 C 347.179688 131.980469 346.273438 133.148438 346.28125 134.605469 Z M 347.753906 134.539062 C 347.855469 134.046875 347.980469 133.527344 348.597656 133.667969 C 349.210938 133.8125 349.339844 134.394531 349.359375 134.941406 C 349.378906 135.421875 349.214844 135.957031 348.652344 135.910156 C 347.867188 135.839844 347.832031 135.132812 347.753906 134.539062 Z M 347.753906 134.539062 " fill-opacity="1" fill-rule="nonzero"/><path fill="#008080" d="M 268.851562 215.917969 C 267.796875 215.910156 267.191406 216.015625 266.648438 216.363281 C 266.179688 216.664062 265.628906 217.039062 265.90625 217.640625 C 266.261719 218.417969 266.808594 217.820312 267.265625 217.636719 C 269.109375 216.910156 270.402344 217.804688 271.53125 219.113281 C 271.832031 219.460938 272.046875 219.996094 272.605469 219.664062 C 273.222656 219.300781 273.078125 218.714844 272.761719 218.242188 C 272.332031 217.566406 271.769531 217.027344 271.082031 216.617188 C 270.394531 216.207031 269.652344 215.976562 268.851562 215.917969 Z M 268.851562 215.917969 " fill-opacity="1" fill-rule="nonzero"/><path fill="#008080" d="M 348.546875 171.417969 C 348.582031 169.828125 347.972656 168.742188 346.859375 168.425781 C 345.632812 168.082031 344.433594 168.738281 343.699219 170.199219 C 343.117188 171.273438 342.980469 172.398438 343.296875 173.582031 C 343.8125 175.4375 345.621094 175.980469 347.089844 174.730469 C 347.546875 174.300781 347.902344 173.796875 348.15625 173.222656 C 348.410156 172.648438 348.539062 172.046875 348.546875 171.417969 Z M 344.515625 172.566406 C 344.476562 171.367188 345.199219 170.050781 345.988281 169.824219 C 346.140625 169.777344 346.289062 169.777344 346.441406 169.824219 C 346.59375 169.871094 346.714844 169.960938 346.808594 170.085938 C 347.34375 170.71875 347.238281 172.199219 346.574219 173.140625 C 346.253906 173.597656 345.882812 174.03125 345.246094 173.839844 C 344.605469 173.648438 344.589844 173.054688 344.515625 172.566406 Z M 344.515625 172.566406 " fill-opacity="1" fill-rule="nonzero"/><path fill="#008080" d="M 352.550781 153.195312 C 352.5 151.320312 351.5 149.984375 350.171875 150.019531 C 348.808594 150.054688 347.710938 151.378906 347.597656 153.128906 C 347.476562 154.976562 348.507812 156.554688 349.90625 156.65625 C 351.398438 156.765625 352.601562 155.191406 352.550781 153.195312 Z M 348.972656 153.417969 C 349.089844 152.667969 349.089844 151.6875 350.046875 151.605469 C 350.917969 151.53125 351.074219 152.417969 351.125 153.128906 C 351.207031 154.210938 350.59375 155.234375 349.957031 155.085938 C 349.101562 154.890625 349.070312 154.128906 348.972656 153.417969 Z M 348.972656 153.417969 " fill-opacity="1" fill-rule="nonzero"/></svg>